<svg id="Group_257" data-name="Group 257" xmlns="http://www.w3.org/2000/svg" width="14.485" height="18.085" viewBox="0 0 14.485 18.085">
  <path id="Icon_material-find-in-page" data-name="Icon material-find-in-page" d="M20.468,18.906V8.425L15.042,3H7.808a1.806,1.806,0,0,0-1.8,1.808L6,19.276a1.806,1.806,0,0,0,1.8,1.808h10.86a1.792,1.792,0,0,0,1.076-.362L15.73,16.717a4.522,4.522,0,1,1,2.026-3.771A4.5,4.5,0,0,1,17,15.433Zm-9.947-5.959a2.713,2.713,0,1,0,2.713-2.713A2.709,2.709,0,0,0,10.521,12.947Z" transform="translate(-6 -3)" fill="#4285b9"/>
  <path id="Path_247" data-name="Path 247" d="M1620.614,11143.124l7.765-.58,2.5,2.008,1.607,9.238s-.446,1.7-.892,1.963-7.72-1.7-7.72-1.7l-3.882-3.838-.491-4.687Z" transform="translate(-1618 -11138)" fill="#4285b9"/>
</svg>
