<svg xmlns="http://www.w3.org/2000/svg" width="18.755" height="16.671" viewBox="0 0 18.755 16.671">
  <path id="Icon_awesome-shopping-cart" data-name="Icon awesome-shopping-cart" d="M17.2,9.811l1.539-6.773a.781.781,0,0,0-.762-.955H5.184L4.885.625A.781.781,0,0,0,4.12,0H.781A.781.781,0,0,0,0,.781V1.3a.781.781,0,0,0,.781.781H3.057L5.344,13.266a1.824,1.824,0,1,0,2.183.279h6.826a1.823,1.823,0,1,0,2.071-.339l.18-.79a.781.781,0,0,0-.762-.955H7.1l-.213-1.042h9.545A.781.781,0,0,0,17.2,9.811Z" fill="#4285b9"/>
</svg>
