<svg xmlns="http://www.w3.org/2000/svg" width="15.2" height="17.371" viewBox="0 0 15.2 17.371">
  <path id="Icon_awesome-calendar" data-name="Icon awesome-calendar" d="M.407,6.514H14.793a.408.408,0,0,1,.407.407v8.821a1.629,1.629,0,0,1-1.629,1.629H1.629A1.629,1.629,0,0,1,0,15.743V6.921A.408.408,0,0,1,.407,6.514ZM15.2,5.021V3.8a1.629,1.629,0,0,0-1.629-1.629H11.943V.407A.408.408,0,0,0,11.535,0H10.178a.408.408,0,0,0-.407.407V2.171H5.428V.407A.408.408,0,0,0,5.021,0H3.664a.408.408,0,0,0-.407.407V2.171H1.629A1.629,1.629,0,0,0,0,3.8V5.021a.408.408,0,0,0,.407.407H14.793A.408.408,0,0,0,15.2,5.021Z" fill="#4285b9"/>
</svg>
