<svg xmlns="http://www.w3.org/2000/svg" width="13" height="13" viewBox="0 0 13 13">
  <g id="Icon_feather-settings" data-name="Icon feather-settings" transform="translate(-1 -1)">
    <path id="Path_654" data-name="Path 654" d="M16.773,15.136A1.636,1.636,0,1,1,15.136,13.5,1.636,1.636,0,0,1,16.773,15.136Z" transform="translate(-7.636 -7.636)" fill="none" stroke="#fff" stroke-linecap="round" stroke-linejoin="round" stroke-width="1"/>
    <path id="Path_655" data-name="Path 655" d="M11.536,9.136a.9.9,0,0,0,.18.993l.033.033a1.092,1.092,0,1,1-1.544,1.544l-.033-.033a.907.907,0,0,0-1.538.644v.093a1.091,1.091,0,1,1-2.182,0V12.36a.944.944,0,0,0-1.582-.644l-.033.033a1.092,1.092,0,1,1-1.544-1.544l.033-.033a.907.907,0,0,0-.644-1.538H2.591a1.091,1.091,0,1,1,0-2.182H2.64a.944.944,0,0,0,.644-1.582l-.033-.033A1.092,1.092,0,1,1,4.795,3.295l.033.033a.9.9,0,0,0,.993.18h.044a.9.9,0,0,0,.545-.824V2.591a1.091,1.091,0,0,1,2.182,0V2.64a.907.907,0,0,0,1.538.644l.033-.033a1.092,1.092,0,1,1,1.544,1.544l-.033.033a.9.9,0,0,0-.18.993v.044a.9.9,0,0,0,.824.545h.093a1.091,1.091,0,1,1,0,2.182H12.36a.9.9,0,0,0-.824.545Z" fill="none" stroke="#fff" stroke-linecap="round" stroke-linejoin="round" stroke-width="1"/>
  </g>
</svg>
