<svg xmlns="http://www.w3.org/2000/svg" width="33" height="33" viewBox="0 0 33 33">
  <g id="Icon_feather-copy" data-name="Icon feather-copy" transform="translate(-1.5 -1.5)">
    <path id="Path_634" data-name="Path 634" d="M16.5,13.5H30a3,3,0,0,1,3,3V30a3,3,0,0,1-3,3H16.5a3,3,0,0,1-3-3V16.5A3,3,0,0,1,16.5,13.5Z" fill="none" stroke="#f5a623" stroke-linecap="round" stroke-linejoin="round" stroke-width="3"/>
    <path id="Path_635" data-name="Path 635" d="M7.5,22.5H6a3,3,0,0,1-3-3V6A3,3,0,0,1,6,3H19.5a3,3,0,0,1,3,3V7.5" fill="none" stroke="#f5a623" stroke-linecap="round" stroke-linejoin="round" stroke-width="3"/>
  </g>
</svg>
