<?xml version="1.0" encoding="utf-8"?>
<!-- Generator: Adobe Illustrator 22.0.1, SVG Export Plug-In . SVG Version: 6.00 Build 0)  -->
<svg version="1.1" id="Layer_1" xmlns="http://www.w3.org/2000/svg" xmlns:xlink="http://www.w3.org/1999/xlink" x="0px" y="0px"
	 viewBox="0 0 40.9 32.6" style="enable-background:new 0 0 40.9 32.6;" xml:space="preserve">
<style type="text/css">
	.st0{fill:#4285B9;}
</style>
<g id="Group_531" transform="translate(-120.305 -738.178)">
	<g id="Path_569">
		<path class="st0" d="M156.6,770.8H125c-2.4,0-4.4-2-4.5-4.4v-23.7c0-2.4,2-4.4,4.4-4.5c0,0,0,0,0,0h31.6c2.4,0,4.4,2,4.5,4.4v23.7
			C161,768.8,159,770.8,156.6,770.8z M125,739.2c-1.9,0-3.4,1.6-3.5,3.5v23.7c0,1.9,1.6,3.4,3.5,3.4h31.6c1.9,0,3.4-1.6,3.5-3.5
			v-23.7c0-1.9-1.6-3.4-3.5-3.5H125z"/>
	</g>
	<g id="Path_570">
		<path class="st0" d="M140.8,757c-0.1,0-0.2,0-0.3-0.1L120.7,743c-0.2-0.2-0.3-0.5-0.1-0.7c0.2-0.2,0.5-0.3,0.7-0.1l19.5,13.6
			l19.5-13.6c0.2-0.2,0.5-0.1,0.7,0.1c0.2,0.2,0.1,0.5-0.1,0.7L141,756.9C141,756.9,140.9,757,140.8,757z"/>
	</g>
</g>
</svg>
