<?xml version="1.0" encoding="utf-8"?>
<!-- Generator: Adobe Illustrator 22.0.1, SVG Export Plug-In . SVG Version: 6.00 Build 0)  -->
<svg version="1.1" id="Layer_1" xmlns="http://www.w3.org/2000/svg" xmlns:xlink="http://www.w3.org/1999/xlink" x="0px" y="0px"
	 viewBox="0 0 34.3 43.7" style="enable-background:new 0 0 34.3 43.7;" xml:space="preserve">
<style type="text/css">
	.st0{fill:#4285B9;}
</style>
<g id="Group_529" transform="translate(302.069 -914.841) rotate(19)">
	<path id="Path_583" class="st0" d="M39.4,954.1c-0.2,0-0.3,0.1-0.4,0.3L21,983.8c-0.2,0.3-0.1,0.6,0.2,0.8c0.1,0.1,0.3,0.1,0.4,0.1
		l13.3-3.2l-3.8,20.6c0,0.3,0.2,0.6,0.5,0.6c0.2,0,0.4-0.1,0.5-0.2l18.1-29.4c0.2-0.3,0.1-0.6-0.2-0.8c-0.1-0.1-0.3-0.1-0.4-0.1
		l-13.3,3.2l3.8-20.6c0.1-0.3-0.2-0.6-0.5-0.7C39.6,954.1,39.5,954.1,39.4,954.1L39.4,954.1z M38.4,957.5L35,976.1
		c-0.1,0.3,0.1,0.6,0.5,0.7c0.1,0,0.1,0,0.2,0l12.8-3.1l-15.8,25.7l3.4-18.5c0.1-0.3-0.1-0.6-0.5-0.7c-0.1,0-0.1,0-0.2,0l-12.8,3.1
		L38.4,957.5L38.4,957.5z"/>
</g>
</svg>
