<svg xmlns="http://www.w3.org/2000/svg" width="34.331" height="43.709" viewBox="0 0 34.331 43.709">
  <g id="Group_529" data-name="Group 529" transform="translate(302.069 -914.841) rotate(19)">
    <path id="Path_583" data-name="Path 583" d="M38.622,959.292a.445.445,0,0,0-.306.209L24.075,982.653a.445.445,0,0,0,.473.668L35.02,980.8l-2.99,16.251a.445.445,0,0,0,.807.306l14.242-23.152a.445.445,0,0,0-.473-.668l-10.473,2.518,2.99-16.251a.445.445,0,0,0-.5-.515Zm-.793,2.671-2.684,14.609a.445.445,0,0,0,.529.515l10.083-2.421L33.323,994.9l2.684-14.609a.445.445,0,0,0-.529-.515L25.4,982.194l12.434-20.23Z" transform="translate(0 0)" fill="#fff"/>
  </g>
</svg>
