<svg xmlns="http://www.w3.org/2000/svg" width="34.814" height="35.152" viewBox="0 0 34.814 35.152">
  <g id="Group_528" data-name="Group 528" transform="translate(-7 -974.653)">
    <path id="Path_577" data-name="Path 577" d="M15.81,1004.54a.62.62,0,0,0-.333.088A17.391,17.391,0,0,0,7,1019.571c0,.342.006.686.033,1.038a.619.619,0,0,0,.618.573H41.169a.619.619,0,0,0,.618-.584c.019-.344.026-.684.026-1.026a17.391,17.391,0,0,0-8.477-14.944.619.619,0,0,0-.729.068,12.356,12.356,0,0,1-16.4,0,.62.62,0,0,0-.4-.156Zm-.074,1.383a13.59,13.59,0,0,0,17.341,0,16.139,16.139,0,0,1,7.5,13.648c0,.126,0,.249,0,.372H8.243c0-.122,0-.246,0-.372a16.139,16.139,0,0,1,7.5-13.648Z" transform="translate(0 -11.376)" fill="#fff" fill-rule="evenodd"/>
    <path id="Path_578" data-name="Path 578" d="M29.627,974.653a8.8,8.8,0,1,0,8.8,8.8A8.812,8.812,0,0,0,29.627,974.653Zm0,1.239a7.562,7.562,0,1,1-7.568,7.562A7.554,7.554,0,0,1,29.627,975.892Z" transform="translate(-5.261 0)" fill="#fff" fill-rule="evenodd"/>
  </g>
</svg>
