<svg xmlns="http://www.w3.org/2000/svg" width="39.684" height="34.849" viewBox="0 0 39.684 34.849">
  <path id="Icon_awesome-wallet" data-name="Icon awesome-wallet" d="M34.846,9.5H6.044a1.209,1.209,0,1,1,0-2.418H35.058a1.209,1.209,0,0,0,1.209-1.209A3.627,3.627,0,0,0,32.64,2.25H4.836A4.835,4.835,0,0,0,0,7.086V31.263A4.835,4.835,0,0,0,4.836,36.1H34.846a3.741,3.741,0,0,0,3.838-3.627V13.13A3.741,3.741,0,0,0,34.846,9.5ZM31.431,25.219A2.418,2.418,0,1,1,33.849,22.8,2.418,2.418,0,0,1,31.431,25.219Z" transform="translate(0.5 -1.75)" fill="none" stroke="#4285b9" stroke-width="1"/>
</svg>
