<?xml version="1.0" encoding="utf-8"?>
<!-- Generator: Adobe Illustrator 22.0.1, SVG Export Plug-In . SVG Version: 6.00 Build 0)  -->
<svg version="1.1" id="Layer_1" xmlns="http://www.w3.org/2000/svg" xmlns:xlink="http://www.w3.org/1999/xlink" x="0px" y="0px"
	 viewBox="0 0 39.7 34.8" style="enable-background:new 0 0 39.7 34.8;" xml:space="preserve">
<style type="text/css">
	.st0{fill:#4285B9;}
</style>
<g id="Icon_awesome-wallet">
	<path class="st0" d="M35.4,34.9c0,0-0.1,0-0.1,0h-30c-2.9,0-5.3-2.4-5.3-5.3V5.3c0-1.4,0.6-2.8,1.6-3.8c1-1,2.3-1.6,3.8-1.6
		c0,0,0,0,0,0h27.8c2.3,0,4.1,1.8,4.1,4.1c0,0.9-0.8,1.7-1.7,1.7h-29c-0.4,0-0.7,0.3-0.7,0.7s0.3,0.7,0.7,0.7h28.8c0,0,0.1,0,0.1,0
		c2.3,0,4.2,1.8,4.2,4.1v19.4C39.6,33,37.7,34.9,35.4,34.9z M5.3,1C4.2,1,3.1,1.5,2.3,2.3S1,4.2,1,5.3v24.2c0,2.4,1.9,4.3,4.3,4.3
		h30c1.8,0.1,3.3-1.4,3.3-3.1V11.4c-0.1-1.8-1.6-3.2-3.3-3.1H6.5c-0.9,0-1.7-0.8-1.7-1.7s0.8-1.7,1.7-1.7h29c0.4,0,0.7-0.3,0.7-0.7
		c0-1.7-1.4-3.1-3.1-3.1H5.3C5.3,1,5.3,1,5.3,1z M31.9,24L31.9,24c-1.6,0-2.9-1.3-2.9-2.9s1.3-2.9,2.9-2.9s2.9,1.3,2.9,2.9
		c0,0.8-0.3,1.5-0.9,2.1C33.4,23.7,32.7,24,31.9,24z M31.9,19.1c-1.1,0-1.9,0.9-1.9,1.9s0.9,1.9,1.9,1.9c0.5,0,1-0.2,1.4-0.6
		c0.4-0.4,0.6-0.8,0.6-1.4C33.8,20,33,19.1,31.9,19.1z"/>
</g>
</svg>
