<svg xmlns="http://www.w3.org/2000/svg" width="16.08" height="10.45" viewBox="0 0 16.08 10.45">
  <g id="Icon_ionic-ios-people" data-name="Icon ionic-ios-people" transform="translate(-2.215 -7.748)">
    <path id="Path_636" data-name="Path 636" d="M16.522,15.789c-.4-.143-1.057-.15-1.347-.261a1.9,1.9,0,0,1-.623-.29,3.851,3.851,0,0,1-.1-1.021,1.649,1.649,0,0,0,.355-.5,5.572,5.572,0,0,0,.172-.985s.236.1.329-.372c.079-.408.229-.623.19-.924s-.208-.229-.208-.229a2.682,2.682,0,0,0,.208-1.339A2.143,2.143,0,0,0,13.18,7.748a2.151,2.151,0,0,0-2.317,2.117,2.722,2.722,0,0,0,.2,1.339s-.168-.072-.208.229.107.516.19.924c.093.476.329.372.329.372a5.626,5.626,0,0,0,.172.985,1.649,1.649,0,0,0,.355.5,3.851,3.851,0,0,1-.1,1.021,1.831,1.831,0,0,1-.623.287c-.287.111-.942.125-1.347.269A2.528,2.528,0,0,0,8.191,18.2h9.967A2.523,2.523,0,0,0,16.522,15.789Z" transform="translate(-2.932)" fill="#4285b9"/>
    <path id="Path_637" data-name="Path 637" d="M6.1,15.742a2.431,2.431,0,0,0,1.2-.333c-.555-.842-.254-1.823-.369-2.74a1.511,1.511,0,0,0-1.672-1.461H5.241a1.516,1.516,0,0,0-1.658,1.461c-.115.913.2,2.006-.365,2.74a2.25,2.25,0,0,0,1.2.3h0a1.814,1.814,0,0,1-.036.6.9.9,0,0,1-.43.2,8.31,8.31,0,0,0-.928.258,1.508,1.508,0,0,0-.809,1.332H5.091a2.573,2.573,0,0,1,1.146-1.067,2.4,2.4,0,0,1,.885-.186s.136-.215-.312-.3a3.053,3.053,0,0,1-.688-.24C6.054,16.225,6.1,15.742,6.1,15.742Z" transform="translate(0 -1.697)" fill="#4285b9"/>
    <path id="Path_638" data-name="Path 638" d="M25,15.742a2.431,2.431,0,0,1-1.2-.333c.555-.842.254-1.823.369-2.74a1.511,1.511,0,0,1,1.672-1.461h.014a1.516,1.516,0,0,1,1.658,1.461c.115.913-.2,2.006.365,2.74a2.25,2.25,0,0,1-1.2.3h0a1.814,1.814,0,0,0,.036.6.9.9,0,0,0,.43.2,8.31,8.31,0,0,1,.928.258,1.508,1.508,0,0,1,.809,1.332H26.014a2.573,2.573,0,0,0-1.146-1.067,2.4,2.4,0,0,0-.885-.186s-.136-.215.312-.3a3.053,3.053,0,0,0,.688-.24C25.051,16.225,25,15.742,25,15.742Z" transform="translate(-10.595 -1.697)" fill="#4285b9"/>
  </g>
</svg>
