<svg xmlns="http://www.w3.org/2000/svg" width="12.031" height="12.615" viewBox="0 0 12.031 12.615">
  <path id="Path_636" data-name="Path 636" d="M18.247,17.454c-.484-.173-1.275-.182-1.625-.316a2.3,2.3,0,0,1-.752-.35,4.648,4.648,0,0,1-.125-1.232,1.99,1.99,0,0,0,.428-.605,6.726,6.726,0,0,0,.208-1.189s.285.121.4-.45c.1-.493.277-.752.229-1.115s-.251-.277-.251-.277a3.237,3.237,0,0,0,.251-1.617,2.587,2.587,0,0,0-2.793-2.555,2.6,2.6,0,0,0-2.8,2.555,3.285,3.285,0,0,0,.246,1.617s-.2-.086-.251.277.13.623.229,1.115c.112.575.4.45.4.45a6.791,6.791,0,0,0,.208,1.189,1.99,1.99,0,0,0,.428.605,4.648,4.648,0,0,1-.125,1.232,2.21,2.21,0,0,1-.752.346c-.346.134-1.137.151-1.625.324a3.051,3.051,0,0,0-1.98,2.905H20.223A3.045,3.045,0,0,0,18.247,17.454Z" transform="translate(-8.191 -7.748)" fill="#4285b9"/>
</svg>
