<svg xmlns="http://www.w3.org/2000/svg" width="29.591" height="33.818" viewBox="0 0 29.591 33.818">
  <path id="Icon_awesome-paperclip" data-name="Icon awesome-paperclip" d="M2.856,30.789a10.348,10.348,0,0,1,.092-14.372L16.8,2.246a7.392,7.392,0,0,1,10.613,0,7.689,7.689,0,0,1,0,10.719L15.338,25.306a4.928,4.928,0,0,1-7.132-.066,5.119,5.119,0,0,1,.1-7.064l9.494-9.7a1.057,1.057,0,0,1,1.494-.016L20.8,9.939a1.057,1.057,0,0,1,.016,1.494l-9.493,9.7a.893.893,0,0,0-.043,1.208.7.7,0,0,0,1.036.011L24.394,10.009a3.46,3.46,0,0,0,0-4.808,3.168,3.168,0,0,0-4.568,0L5.97,19.373a6.117,6.117,0,0,0-.079,8.475,5.633,5.633,0,0,0,8.128.019L25.385,16.242a1.057,1.057,0,0,1,1.494-.017L28.39,17.7a1.057,1.057,0,0,1,.017,1.494L17.042,30.821a9.855,9.855,0,0,1-14.186-.032Z" transform="translate(0 0)" fill="#bbb8b8"/>
</svg>
