<svg xmlns="http://www.w3.org/2000/svg" width="51.632" height="38.724" viewBox="0 0 51.632 38.724">
  <path id="Icon_awesome-image" data-name="Icon awesome-image" d="M46.792,43.224H4.841A4.84,4.84,0,0,1,0,38.384V9.341A4.84,4.84,0,0,1,4.841,4.5H46.792a4.84,4.84,0,0,1,4.841,4.841V38.384A4.84,4.84,0,0,1,46.792,43.224Zm-35.5-33.077a5.647,5.647,0,1,0,5.647,5.647A5.647,5.647,0,0,0,11.295,10.147ZM6.454,36.77H45.178V25.476L36.353,16.65a1.21,1.21,0,0,0-1.711,0L20.976,30.316l-5.6-5.6a1.21,1.21,0,0,0-1.711,0L6.454,31.93Z" transform="translate(0 -4.5)" fill="#bbb8b8"/>
</svg>
