<svg xmlns="http://www.w3.org/2000/svg" width="33.823" height="33.818" viewBox="0 0 33.823 33.818">
  <path id="Icon_simple-applemusic" data-name="Icon simple-applemusic" d="M33.817,8.63a13.007,13.007,0,0,0-.338-3.086,6.928,6.928,0,0,0-3.072-4.288A7.077,7.077,0,0,0,27.762.231a14.792,14.792,0,0,0-2.2-.211c-.056,0-.117-.014-.175-.018H8.439C8.224.016,8.012.025,7.8.038A9.828,9.828,0,0,0,4.707.6,7.04,7.04,0,0,0,.67,4.521,7.921,7.921,0,0,0,.158,6.505,14.951,14.951,0,0,0,.017,8.168c0,.045-.01.087-.014.131V25.524c.014.2.024.4.038.6a9.274,9.274,0,0,0,.7,3.344A7.019,7.019,0,0,0,5.3,33.414a9.263,9.263,0,0,0,1.822.321c.782.075,1.564.085,2.349.085H25.014a17.616,17.616,0,0,0,2.212-.141,7.523,7.523,0,0,0,3.236-1.141,7.111,7.111,0,0,0,2.649-3.112,7.809,7.809,0,0,0,.521-1.866,17.223,17.223,0,0,0,.193-2.875q0-8.033,0-16.055Zm-9.051,5.623V22.3a3.8,3.8,0,0,1-.344,1.7,2.985,2.985,0,0,1-1.956,1.607,6.5,6.5,0,0,1-1.508.244,2.637,2.637,0,0,1-1.275-5.014,6.012,6.012,0,0,1,1.435-.457c.533-.116,1.068-.216,1.6-.338a.871.871,0,0,0,.719-.727,1.274,1.274,0,0,0,.028-.272q0-3.837,0-7.67a1.021,1.021,0,0,0-.037-.261.405.405,0,0,0-.428-.33,5.1,5.1,0,0,0-.669.093q-1.607.317-3.213.643l-3.278.662-1.936.392c-.023,0-.045.014-.068.018a.635.635,0,0,0-.55.691c0,.059,0,.121,0,.183q0,5.5,0,11a4.321,4.321,0,0,1-.3,1.729,3,3,0,0,1-2.021,1.738,6.26,6.26,0,0,1-1.515.242A2.593,2.593,0,0,1,6.732,26a2.629,2.629,0,0,1,1.626-2.924,8.311,8.311,0,0,1,1.561-.437c.4-.085.81-.163,1.212-.249a.981.981,0,0,0,.846-1.006v-.211q0-6.257,0-12.517a2.242,2.242,0,0,1,.059-.521.978.978,0,0,1,.769-.73c.359-.093.726-.158,1.091-.233,1.033-.211,2.066-.417,3.1-.626l3.2-.648c.944-.189,1.888-.38,2.833-.568a8.555,8.555,0,0,1,.936-.149.7.7,0,0,1,.781.679,2.9,2.9,0,0,1,.017.314q0,4.037,0,8.078Z" transform="translate(-0.003 -0.001)" fill="#bbb8b8"/>
</svg>
