<svg version="1.2" xmlns="http://www.w3.org/2000/svg" xmlnsXlink="http://www.w3.org/1999/xlink" overflow="visible" preserveAspectRatio="none" viewBox="0 0 24 24" width="48" height="48"><g><path xmlnsDefault="http://www.w3.org/2000/svg" id="check-circle" d="M17.37,10.31c0,0.18-0.06,0.35-0.19,0.47l-5.65,5.65c-0.13,0.13-0.3,0.2-0.48,0.2  c-0.18,0-0.35-0.07-0.47-0.2l-3.76-3.76c-0.13-0.12-0.19-0.29-0.19-0.47c-0.01-0.18,0.06-0.35,0.19-0.48l0.95-0.94  c0.25-0.26,0.66-0.27,0.92-0.02c0.01,0.01,0.01,0.01,0.02,0.02l2.35,2.35L15.3,8.9c0.25-0.26,0.66-0.27,0.92-0.02  c0.01,0.01,0.01,0.01,0.02,0.02l0.95,0.94c0.13,0.13,0.2,0.3,0.19,0.48l0,0L17.37,10.31z M18.92,8c-0.7-1.21-1.71-2.22-2.92-2.92  C14.79,4.37,13.41,3.99,12,4c-1.41-0.01-2.79,0.37-4,1.08C6.79,5.78,5.78,6.79,5.08,8C4.37,9.21,3.99,10.59,4,12  c-0.01,1.41,0.36,2.79,1.07,4c0.7,1.21,1.71,2.22,2.93,2.92c1.21,0.71,2.59,1.09,4,1.08c1.41,0.01,2.79-0.36,4-1.07  c1.21-0.7,2.22-1.71,2.92-2.93c0.71-1.21,1.09-2.59,1.08-4C20.01,10.59,19.63,9.21,18.92,8z" style="fill: rgb(255, 255, 255);" vectorEffect="non-scaling-stroke"/></g></svg>