<svg version="1.2" xmlns="http://www.w3.org/2000/svg" xmlnsXlink="http://www.w3.org/1999/xlink" overflow="visible" preserveAspectRatio="none" viewBox="0 0 26 26" width="24" height="24"><g><defs> </defs> <rect display="none" fill="#FFA400" width="26" height="26" style="fill: rgb(237, 175, 19);" vectorEffect="non-scaling-stroke"/> <rect id="_x3C_Slice_x3E__109_" display="none" fill="none" width="26" height="26" style="fill: rgb(237, 175, 19);" vectorEffect="non-scaling-stroke"/> <path fillRule="evenodd" clipRule="evenodd" d="M22.703,13.191l3.294-1.374l-1.004-4.225L21.3,7.988 c-0.373-0.629-0.805-1.203-1.29-1.717l1.364-3.315l-3.696-2.28l-2.306,2.867c-0.799-0.21-1.622-0.314-2.454-0.319l-1.445-3.219 L7.277,1.132L7.77,4.693C7.19,5.053,6.659,5.462,6.186,5.91L2.999,4.597L0.72,8.295l2.743,2.218c-0.2,0.755-0.318,1.538-0.335,2.327 l-3.124,1.298l1.007,4.23l3.487-0.375c0.403,0.7,0.875,1.334,1.422,1.893l-1.285,3.116L8.33,25.28l2.216-2.75 c0.752,0.187,1.518,0.291,2.3,0.299l1.312,3.167l4.223-1.007L18,21.396c0.653-0.398,1.255-0.854,1.773-1.368l3.237,1.334 l2.277-3.701l-2.865-2.312C22.595,14.644,22.692,13.92,22.703,13.191z M13,19.014c-3.308,0-5.989-2.692-5.989-6.014 S9.692,6.986,13,6.986S18.989,9.679,18.989,13S16.308,19.014,13,19.014z M13,10.99c-1.11,0-2.01,0.9-2.01,2.01 c0,1.11,0.9,2.01,2.01,2.01s2.01-0.899,2.01-2.01C15.01,11.891,14.11,10.99,13,10.99z" style="fill: rgb(237, 175, 19);" vectorEffect="non-scaling-stroke"/> </g></svg>