<svg xmlns="http://www.w3.org/2000/svg" width="31.854" height="31.854" viewBox="0 0 31.854 31.854">
  <path id="Icon_metro-qrcode" data-name="Icon metro-qrcode" d="M12.525,3.919H4.562v7.964h7.964Zm1.991-1.991V13.873H2.571V1.928ZM6.552,5.91h3.982V9.892H6.552ZM32.434,3.919H24.47v7.964h7.964Zm1.991-1.991V13.873H22.48V1.928ZM26.461,5.91h3.982V9.892H26.461ZM12.525,23.828H4.562v7.964h7.964Zm1.991-1.991V33.782H2.571V21.837ZM6.552,25.819h3.982V29.8H6.552ZM16.507,1.928H18.5V3.919H16.507ZM18.5,3.919h1.991V5.91H18.5ZM16.507,5.91H18.5V7.9H16.507ZM18.5,7.9h1.991V9.892H18.5ZM16.507,9.892H18.5v1.991H16.507ZM18.5,11.882h1.991v1.991H18.5Zm-1.991,1.991H18.5v1.991H16.507Zm0,3.982H18.5v1.991H16.507ZM18.5,19.846h1.991v1.991H18.5Zm-1.991,1.991H18.5v1.991H16.507ZM18.5,23.828h1.991v1.991H18.5Zm-1.991,1.991H18.5V27.81H16.507ZM18.5,27.81h1.991V29.8H18.5ZM16.507,29.8H18.5v1.991H16.507ZM18.5,31.791h1.991v1.991H18.5ZM32.434,17.855h1.991v1.991H32.434Zm-27.872,0H6.552v1.991H4.562Zm1.991-1.991H8.543v1.991H6.552Zm-3.982,0H4.562v1.991H2.571Zm7.964,0h1.991v1.991H10.534Zm1.991,1.991h1.991v1.991H12.525Zm1.991-1.991h1.991v1.991H14.516Zm5.973,1.991H22.48v1.991H20.489Zm1.991-1.991H24.47v1.991H22.48Zm1.991,1.991h1.991v1.991H24.47Zm1.991-1.991h1.991v1.991H26.461Zm1.991,1.991h1.991v1.991H28.452Zm1.991-1.991h1.991v1.991H30.443Zm1.991,5.973h1.991v1.991H32.434Zm-11.945,0H22.48v1.991H20.489Zm1.991-1.991H24.47v1.991H22.48Zm1.991,1.991h1.991v1.991H24.47Zm3.982,0h1.991v1.991H28.452Zm1.991-1.991h1.991v1.991H30.443Zm1.991,5.973h1.991V27.81H32.434Zm-11.945,0H22.48V27.81H20.489Zm1.991-1.991H24.47v1.991H22.48Zm3.982,0h1.991v1.991H26.461Zm1.991,1.991h1.991V27.81H28.452Zm1.991-1.991h1.991v1.991H30.443ZM32.434,29.8h1.991v1.991H32.434ZM22.48,27.81H24.47V29.8H22.48ZM24.47,29.8h1.991v1.991H24.47Zm1.991-1.991h1.991V29.8H26.461ZM28.452,29.8h1.991v1.991H28.452ZM22.48,31.791H24.47v1.991H22.48Zm3.982,0h1.991v1.991H26.461Zm3.982,0h1.991v1.991H30.443Z" transform="translate(-2.571 -1.928)" fill="#fafafa"/>
</svg>
