<?xml version="1.0" encoding="utf-8"?>
<!-- Generator: Adobe Illustrator 22.0.1, SVG Export Plug-In . SVG Version: 6.00 Build 0)  -->
<svg version="1.1" id="Layer_1" xmlns="http://www.w3.org/2000/svg" xmlns:xlink="http://www.w3.org/1999/xlink" x="0px" y="0px"
	 viewBox="0 0 13.7 12.2" style="enable-background:new 0 0 13.7 12.2;" xml:space="preserve">
<style type="text/css">
	.st0{fill:#4285B9;}
</style>
<g id="Icon_awesome-wallet">
	<path class="st0" d="M12,12.2C12,12.2,12,12.2,12,12.2H2.1c-1.2,0-2.1-0.9-2.1-2.1v-8C0,0.9,0.9,0,2.1,0h9.2c0.9,0,1.7,0.8,1.7,1.7
		c0,0.3-0.2,0.6-0.4,0.8c0.7,0.2,1.2,0.8,1.2,1.6v6.4C13.7,11.4,12.9,12.2,12,12.2z M11.3,1H2.1C1.5,1,1,1.5,1,2.1v8
		c0,0.6,0.5,1.1,1.1,1.1H12c0.4,0,0.8-0.3,0.8-0.7V4.1c0-0.4-0.3-0.7-0.7-0.7c0,0,0,0,0,0H2.5C2,3.4,1.6,3,1.6,2.5
		C1.6,2,2,1.6,2.5,1.6h9.5C11.9,1.3,11.6,1,11.3,1z M10.9,8.6c-0.7,0-1.3-0.6-1.3-1.3S10.1,6,10.9,6s1.3,0.6,1.3,1.3
		S11.6,8.6,10.9,8.6z M10.9,7c-0.2,0-0.3,0.1-0.3,0.3c0,0.2,0.1,0.3,0.3,0.3c0.2,0,0.3-0.1,0.3-0.3C11.2,7.1,11,7,10.9,7z"/>
</g>
</svg>
