<svg id="Icon_ionic-ios-help-circle-outline" data-name="Icon ionic-ios-help-circle-outline" xmlns="http://www.w3.org/2000/svg" width="13.145" height="13.145" viewBox="0 0 13.145 13.145">
  <path id="Path_600" data-name="Path 600" d="M9.948,4.26A5.686,5.686,0,1,1,5.925,5.925,5.65,5.65,0,0,1,9.948,4.26m0-.885A6.573,6.573,0,1,0,16.52,9.948,6.572,6.572,0,0,0,9.948,3.375Z" transform="translate(-3.375 -3.375)" fill="#4285b9"/>
  <path id="Path_601" data-name="Path 601" d="M15.544,11.25c1.185,0,2,.657,2,1.6a1.546,1.546,0,0,1-.888,1.4c-.55.319-.736.553-.736.957v.25h-1.1l-.009-.272a1.315,1.315,0,0,1,.746-1.39c.534-.319.758-.521.758-.913a.767.767,0,0,0-.85-.679.8.8,0,0,0-.847.777H13.5A1.8,1.8,0,0,1,15.544,11.25Zm-.831,5.416a.678.678,0,1,1,.676.651A.662.662,0,0,1,14.713,16.666Z" transform="translate(-8.95 -7.711)" fill="#4285b9"/>
</svg>
