<?xml version="1.0" encoding="utf-8"?>
<!-- Generator: Adobe Illustrator 22.0.1, SVG Export Plug-In . SVG Version: 6.00 Build 0)  -->
<svg version="1.1" id="Layer_1" xmlns="http://www.w3.org/2000/svg" xmlns:xlink="http://www.w3.org/1999/xlink" x="0px" y="0px"
	 viewBox="0 0 13.8 13.8" style="enable-background:new 0 0 13.8 13.8;" xml:space="preserve">
<style type="text/css">
	.st0{fill:#4285B9;}
</style>
<g id="Icon_awesome-user-alt">
	<path class="st0" d="M12.1,13.8H1.7C0.8,13.8,0,13,0,12.1v-0.4C0,9.6,1.7,8,3.7,8l1.6,0c1,0.5,2.2,0.5,3.2,0l0.2,0l1.4,0
		c2,0,3.7,1.7,3.7,3.7v0.4C13.8,13,13,13.8,12.1,13.8z M3.7,9C2.2,9,1,10.2,1,11.7v0.4c0,0.4,0.3,0.7,0.7,0.7h10.4
		c0.4,0,0.7-0.3,0.7-0.7v-0.4c0-1.5-1.2-2.7-2.7-2.7v0H8.8C7.6,9.5,6.2,9.5,5,9H3.7z M6.9,8.2C6.9,8.2,6.9,8.2,6.9,8.2L6.9,8.2
		c-2.3,0-4.1-1.8-4.1-4.1C2.8,1.8,4.6,0,6.9,0c0,0,0,0,0,0C9.2,0,11,1.8,11,4.1C11,6.4,9.1,8.2,6.9,8.2z M6.9,7.2
		C6.9,7.2,6.9,7.2,6.9,7.2c1.7,0,3.1-1.4,3.1-3.1C10,2.4,8.6,1,6.9,1c0,0,0,0,0,0C5.2,1,3.8,2.4,3.8,4.1C3.8,5.8,5.2,7.2,6.9,7.2
		L6.9,7.2z"/>
</g>
</svg>
