<?xml version="1.0" encoding="utf-8"?>
<!-- Generator: Adobe Illustrator 22.0.1, SVG Export Plug-In . SVG Version: 6.00 Build 0)  -->
<svg version="1.1" id="Layer_1" xmlns="http://www.w3.org/2000/svg" xmlns:xlink="http://www.w3.org/1999/xlink" x="0px" y="0px"
	 viewBox="0 0 19 20.9" style="enable-background:new 0 0 19 20.9;" xml:space="preserve">
<style type="text/css">
	.st0{fill:#4285B9;}
</style>
<g id="Icon_feather-power" transform="translate(1 1)">
	<g id="Path_586">
		<path class="st0" d="M8.5,19.9c-2.5,0-4.9-1-6.7-2.8S-1,12.9-1,10.4c0-2.5,1-4.9,2.8-6.7C2,3.4,2.5,3.3,2.9,3.5
			c0.5,0.2,0.7,0.8,0.4,1.3c0,0.1-0.1,0.2-0.2,0.3C1.8,6.5,1,8.4,1,10.4c0,2,0.8,3.9,2.2,5.3c2.9,2.9,7.7,2.9,10.6,0
			c1.4-1.4,2.2-3.3,2.2-5.3c0-2-0.8-3.9-2.2-5.3c-0.4-0.4-0.4-1,0-1.4s1-0.4,1.4,0C17,5.5,18,7.9,18,10.4c0,2.5-1,4.9-2.8,6.7
			C13.4,18.9,11,19.9,8.5,19.9C8.5,19.9,8.5,19.9,8.5,19.9z"/>
	</g>
	<g id="Path_587">
		<path class="st0" d="M8.5,10.4c-0.6,0-1-0.4-1-1V0c0-0.6,0.4-1,1-1c0.6,0,1,0.4,1,1v9.4C9.5,10,9.1,10.4,8.5,10.4z"/>
	</g>
</g>
</svg>
