<svg xmlns="http://www.w3.org/2000/svg" width="16.352" height="14.415" viewBox="0 0 16.352 14.415">
  <g id="Group_665" data-name="Group 665" transform="translate(0.15 0.15)">
    <g id="Group_661" data-name="Group 661" transform="translate(0 0)">
      <path id="Path_596" data-name="Path 596" d="M9.5,18.178H8.344a.446.446,0,0,1-.438-.38l-.167-1.17a4.965,4.965,0,0,1-1.424-.591l-.947.71a.445.445,0,0,1-.578-.041l-.817-.817a.445.445,0,0,1-.041-.578l.711-.948A4.951,4.951,0,0,1,4.05,12.94l-1.17-.167a.444.444,0,0,1-.38-.438V11.18a.445.445,0,0,1,.38-.438l1.17-.167a4.951,4.951,0,0,1,.591-1.424L3.931,8.2a.445.445,0,0,1,.042-.579l.817-.817a.444.444,0,0,1,.578-.041l.947.711a4.966,4.966,0,0,1,1.424-.591l.167-1.17a.446.446,0,0,1,.438-.38H9.5a.444.444,0,0,1,.438.38l.167,1.17a4.973,4.973,0,0,1,1.424.591l.948-.71a.445.445,0,0,1,.578.041l.817.817a.445.445,0,0,1,.041.579l-.71.947a4.951,4.951,0,0,1,.591,1.424l1.17.167a.445.445,0,0,1,.38.438v1.155a.444.444,0,0,1-.38.438l-1.17.167a4.951,4.951,0,0,1-.591,1.424l.711.948a.445.445,0,0,1-.041.578l-.817.817a.446.446,0,0,1-.578.041l-.948-.71a4.958,4.958,0,0,1-1.424.591L9.937,17.8A.444.444,0,0,1,9.5,18.178Zm-3.193-2.52a.172.172,0,0,1,.092.027,4.63,4.63,0,0,0,1.529.635.17.17,0,0,1,.133.143l.184,1.286a.1.1,0,0,0,.1.087H9.5a.1.1,0,0,0,.1-.087l.184-1.286a.17.17,0,0,1,.133-.143,4.631,4.631,0,0,0,1.529-.635.17.17,0,0,1,.195.007l1.041.781a.1.1,0,0,0,.132-.009l.816-.817a.1.1,0,0,0,.009-.132l-.781-1.041a.171.171,0,0,1-.007-.195,4.63,4.63,0,0,0,.635-1.528.17.17,0,0,1,.143-.133l1.286-.184a.1.1,0,0,0,.086-.1V11.18a.1.1,0,0,0-.086-.1L13.628,10.9a.17.17,0,0,1-.143-.133,4.63,4.63,0,0,0-.635-1.528.171.171,0,0,1,.007-.195L13.637,8a.1.1,0,0,0-.009-.132l-.817-.816a.1.1,0,0,0-.132-.009l-1.041.781a.171.171,0,0,1-.195.007,4.636,4.636,0,0,0-1.529-.635.17.17,0,0,1-.133-.143L9.6,5.764a.1.1,0,0,0-.1-.087H8.344a.1.1,0,0,0-.1.087L8.06,7.051a.17.17,0,0,1-.133.143A4.634,4.634,0,0,0,6.4,7.828.171.171,0,0,1,6.2,7.821L5.163,7.041a.1.1,0,0,0-.132.009l-.817.817A.1.1,0,0,0,4.2,8L4.986,9.04a.171.171,0,0,1,.007.195,4.63,4.63,0,0,0-.635,1.528.17.17,0,0,1-.143.133l-1.286.184a.1.1,0,0,0-.086.1v1.155a.1.1,0,0,0,.086.1l1.286.184a.17.17,0,0,1,.143.133,4.63,4.63,0,0,0,.635,1.528.171.171,0,0,1-.007.195L4.2,15.516a.1.1,0,0,0,.009.132l.817.817a.1.1,0,0,0,.132.009L6.2,15.693A.171.171,0,0,1,6.306,15.659Z" transform="translate(-2.5 -5.336)" fill="#4285b9" stroke="#4285b9" stroke-width="0.3"/>
    </g>
    <g id="Group_662" data-name="Group 662" transform="translate(10.672 8.582)">
      <path id="Path_597" data-name="Path 597" d="M35.131,33.537a1.541,1.541,0,0,1-1.324-.767.171.171,0,0,1,.027-.207l.37-.37a.1.1,0,0,0,.009-.132l-.431-.575a.17.17,0,0,1-.015-.18,1.534,1.534,0,1,1,1.365,2.231Zm-.958-.83a1.177,1.177,0,0,0,.958.489,1.2,1.2,0,0,0,0-2.391,1.185,1.185,0,0,0-1.009.566l.365.486a.445.445,0,0,1-.041.578Z" transform="translate(-33.748 -30.463)" fill="#4285b9" stroke="#4285b9" stroke-width="0.3"/>
    </g>
    <g id="Group_663" data-name="Group 663" transform="translate(8.538 6.88)">
      <path id="Path_598" data-name="Path 598" d="M31.369,32.715h-.707a.339.339,0,0,1-.334-.29l-.1-.672a3.109,3.109,0,0,1-.808-.336l-.544.408a.339.339,0,0,1-.441-.032l-.5-.5a.338.338,0,0,1-.031-.441l.408-.544a3.107,3.107,0,0,1-.336-.808l-.337-.048a.171.171,0,0,1-.057-.32c.107-.058.214-.118.316-.184a.17.17,0,0,1,.195.007l1.041.781a.1.1,0,0,0,.132-.009l.817-.817a.1.1,0,0,0,.009-.132l-.781-1.041a.171.171,0,0,1-.007-.195,4.63,4.63,0,0,0,.635-1.528.17.17,0,0,1,.143-.133l1.286-.184a.1.1,0,0,0,.08-.081.163.163,0,0,1,.172-.137.171.171,0,0,1,.164.147l.008.057a3.111,3.111,0,0,1,.808.336l.544-.408a.34.34,0,0,1,.44.031l.5.5a.339.339,0,0,1,.032.441l-.408.544a3.111,3.111,0,0,1,.336.808l.672.1a.339.339,0,0,1,.29.334v.707a.339.339,0,0,1-.29.334l-.672.1a3.109,3.109,0,0,1-.336.808l.408.544a.338.338,0,0,1-.031.44l-.5.5a.339.339,0,0,1-.441.032l-.544-.408a3.111,3.111,0,0,1-.808.336l-.1.672A.339.339,0,0,1,31.369,32.715Zm-1.954-1.674a.172.172,0,0,1,.092.027,2.773,2.773,0,0,0,.914.38.17.17,0,0,1,.133.143l.112.787.7,0,.108-.783a.17.17,0,0,1,.133-.143,2.774,2.774,0,0,0,.914-.38.17.17,0,0,1,.195.007l.637.478.494-.5-.479-.631a.171.171,0,0,1-.007-.195,2.773,2.773,0,0,0,.38-.914.17.17,0,0,1,.143-.133l.787-.112,0-.7-.783-.112a.17.17,0,0,1-.143-.133,2.774,2.774,0,0,0-.38-.914.171.171,0,0,1,.007-.195l.478-.637-.5-.494-.632.479a.17.17,0,0,1-.195.007,2.774,2.774,0,0,0-.914-.38.171.171,0,0,1-.03-.009.428.428,0,0,1-.158.056l-1.17.167a4.951,4.951,0,0,1-.591,1.424l.711.948a.445.445,0,0,1-.041.578l-.817.817a.445.445,0,0,1-.578.041l-.576-.432a2.77,2.77,0,0,0,.308.648.171.171,0,0,1-.007.195l-.478.637.5.494.632-.478A.171.171,0,0,1,29.415,31.041Zm5.256-2.675Z" transform="translate(-27.497 -25.48)" fill="#4285b9" stroke="#4285b9" stroke-width="0.3"/>
    </g>
    <g id="Group_664" data-name="Group 664" transform="translate(3.333 3.334)">
      <path id="Path_599" data-name="Path 599" d="M15.347,21.272a3.088,3.088,0,1,1,3.088-3.088A3.091,3.091,0,0,1,15.347,21.272Zm0-5.834a2.746,2.746,0,1,0,2.746,2.746A2.749,2.749,0,0,0,15.348,15.438Z" transform="translate(-12.26 -15.097)" fill="#4285b9" stroke="#4285b9" stroke-width="0.3"/>
    </g>
  </g>
</svg>
