<svg xmlns="http://www.w3.org/2000/svg" width="13.744" height="12.151" viewBox="0 0 13.744 12.151">
  <path id="Icon_awesome-wallet" data-name="Icon awesome-wallet" d="M11.479,4.639H1.991a.4.4,0,0,1,0-.8h9.558a.4.4,0,0,0,.4-.4A1.2,1.2,0,0,0,10.753,2.25H1.593A1.593,1.593,0,0,0,0,3.843v7.965A1.593,1.593,0,0,0,1.593,13.4h9.886a1.232,1.232,0,0,0,1.264-1.195V5.834A1.232,1.232,0,0,0,11.479,4.639ZM10.354,9.817a.8.8,0,1,1,.8-.8A.8.8,0,0,1,10.354,9.817Z" transform="translate(0.5 -1.75)" fill="none" stroke="#4285b9" stroke-width="1"/>
</svg>
