<svg id="Icon_ionic-md-qr-scanner" data-name="Icon ionic-md-qr-scanner" xmlns="http://www.w3.org/2000/svg" width="21.693" height="20.024" viewBox="0 0 21.693 20.024">
  <path id="Path_592" data-name="Path 592" d="M5.878,7.639A.623.623,0,0,1,6.514,7H10.05V4.5H6.566A3.167,3.167,0,0,0,3.375,7.639v3.536h2.5Z" transform="translate(-3.375 -4.5)" fill="#4285b9"/>
  <path id="Path_593" data-name="Path 593" d="M27.15,4.5H23.625V7h3.5a.649.649,0,0,1,.667.636v3.536h2.5V7.639A3.135,3.135,0,0,0,27.15,4.5Z" transform="translate(-8.607 -4.5)" fill="#4285b9"/>
  <path id="Path_594" data-name="Path 594" d="M27.8,25.983a.623.623,0,0,1-.636.636H23.625v2.555h3.536A3.167,3.167,0,0,0,30.3,25.983V22.5H27.8Z" transform="translate(-8.607 -9.15)" fill="#4285b9"/>
  <path id="Path_595" data-name="Path 595" d="M6.514,26.62a.623.623,0,0,1-.636-.636V22.5h-2.5v3.483a3.212,3.212,0,0,0,3.191,3.191H10.05V26.62Z" transform="translate(-3.375 -9.15)" fill="#4285b9"/>
</svg>
